<?xml version="1.0" encoding="UTF-8" standalone="no"?>
<!DOCTYPE svg PUBLIC "-//W3C//DTD SVG 1.1//EN" "http://www.w3.org/Graphics/SVG/1.1/DTD/svg11.dtd">
<svg width="100%" height="100%" viewBox="0 0 400 142" version="1.1" xmlns="http://www.w3.org/2000/svg"
  xmlns:xlink="http://www.w3.org/1999/xlink" xml:space="preserve" xmlns:serif="http://www.serif.com/"
  style="fill-rule:evenodd;clip-rule:evenodd;stroke-linejoin:round;stroke-miterlimit:2;">
  <g id="card" transform="matrix(0.666667,0,0,0.904459,0,0)">
    <rect x="0" y="0" width="600" height="157" style="fill:rgb(211,211,211);" />
    <clipPath id="_clip1">
      <rect x="0" y="0" width="600" height="157" />
    </clipPath>
    <g clip-path="url(#_clip1)">
      <path
        d="M600,8.845C600,3.963 594.623,0 588,0L12,0C5.377,0 0,3.963 0,8.845L0,148.155C0,153.037 5.377,157 12,157L588,157C594.623,157 600,153.037 600,148.155L600,8.845Z"
        style="fill:white;" />
      <path
        d="M600,8.845C600,3.963 594.623,0 588,0L12,0C5.377,0 0,3.963 0,8.845L0,148.155C0,153.037 5.377,157 12,157L588,157C594.623,157 600,153.037 600,148.155L600,8.845ZM598.5,8.845L598.5,148.155C598.5,152.426 593.795,155.894 588,155.894C588,155.894 12,155.894 12,155.894C6.205,155.894 1.5,152.426 1.5,148.155L1.5,8.845C1.5,4.574 6.205,1.106 12,1.106L588,1.106C593.795,1.106 598.5,4.574 598.5,8.845Z"
        style="fill:rgb(131,131,131);fill-opacity:0.5;" />
      <g id="header" transform="matrix(1.5,0,0,1.10563,21.8467,46.8167)">
        <text x="0px" y="0px"
          style="font-family:'Arial-BoldMT', 'Arial', sans-serif;font-weight:700;font-size:20px;">UserName Goal for
          2022</text>
      </g>
      <g id="proportion" transform="matrix(1.5,0,0,1.10563,423.633,89.7529)">
        <text x="0px" y="0px"
          style="font-family:'Arial-BoldMT', 'Arial', sans-serif;font-weight:700;font-size:16px;">99999 <tspan
            x="48.804px 53.249px 57.561px " y="0px 0px 0px ">/ 9</tspan>9999</text>
      </g>
      <g transform="matrix(2.10735,0,0,1.05074,-221.906,5.25146)">
        <path
          d="M378.439,91.542C378.439,89.265 377.189,87.417 375.649,87.417L119.48,87.417C117.94,87.417 116.689,89.265 116.689,91.542C116.689,93.819 117.94,95.667 119.48,95.667L375.649,95.667C377.189,95.667 378.439,93.819 378.439,91.542Z"
          style="fill:rgb(211,211,211);" />
      </g>
      <g transform="matrix(1.10564,0,0,1.05074,-105.016,5.25146)">
        <path
          d="M378.439,91.542C378.439,89.265 376.056,87.417 373.121,87.417L122.008,87.417C119.072,87.417 116.689,89.265 116.689,91.542C116.689,93.819 119.072,95.667 122.008,95.667L373.121,95.667C376.056,95.667 378.439,93.819 378.439,91.542Z"
          style="fill:rgb(83,155,245);" />
      </g>
      <g id="progress" transform="matrix(2.93191,0,0,1.10563,-1111.63,-3.05269)">
        <rect x="545.739" y="104.858" width="29.868" height="11.695" style="fill:none;" />
        <clipPath id="_clip2">
          <rect x="545.739" y="104.858" width="29.868" height="11.695" />
        </clipPath>
        <g clip-path="url(#_clip2)">
          <g id="number" transform="matrix(0.511611,0,0,1,559.963,116.358)">
            <text x="0px" y="0px"
              style="font-family:'Arial-BoldMT', 'Arial', sans-serif;font-weight:700;font-size:16px;">50</text>
          </g>
          <g id="symbol" transform="matrix(0.511611,0,0,1,570.436,116.208)">
            <text x="0px" y="0px"
              style="font-family:'Arial-BoldMT', 'Arial', sans-serif;font-weight:700;font-size:12px;">%</text>
          </g>
        </g>
      </g>
      <g id="commit" transform="matrix(1.5,0,0,1.10563,-12,-2.31935)">
        <g id="icon" transform="matrix(1,0,0,1,-53,-0.1565)">
          <g>
            <path id="commit_3"
              d="M85,80C84.014,80 83.156,79.691 82.427,79.073C81.698,78.455 81.243,77.681 81.062,76.75L77,76.75L77,75.25L81.062,75.25C81.243,74.319 81.698,73.545 82.427,72.927C83.156,72.309 84.014,72 85,72C85.986,72 86.844,72.309 87.573,72.927C88.302,73.545 88.757,74.319 88.938,75.25L93,75.25L93,76.75L88.938,76.75C88.757,77.681 88.302,78.455 87.573,79.073C86.844,79.691 85.986,80 85,80ZM85,78.5C85.695,78.5 86.285,78.257 86.771,77.771C87.257,77.285 87.5,76.695 87.5,76C87.5,75.305 87.257,74.715 86.771,74.229C86.285,73.743 85.695,73.5 85,73.5C84.305,73.5 83.715,73.743 83.229,74.229C82.743,74.715 82.5,75.305 82.5,76C82.5,76.695 82.743,77.285 83.229,77.771C83.715,78.257 84.305,78.5 85,78.5Z"
              style="fill:rgb(128,128,128);fill-rule:nonzero;" />
          </g>
        </g>
        <g id="text" transform="matrix(1,0,0,1,47.3359,79.656)">
          <text x="0px" y="0px"
            style="font-family:'Arial-BoldMT', 'Arial', sans-serif;font-weight:700;font-size:16px;">commit</text>
        </g>
      </g>
    </g>
  </g>
</svg>